<?xml version="1.0" ?><!-- Uploaded to: SVG Repo, www.svgrepo.com, Generator: SVG Repo Mixer Tools -->
<svg fill="#000000" width="800px" height="800px" viewBox="0 0 200 200" data-name="Layer 1" id="Layer_1" xmlns="http://www.w3.org/2000/svg"><title/><path d="M177.68,43.9c-4.5-3.5-10.5-3-14,1.5l-74,89.5-55-40c-4.5-3-10.5-2.5-14,2-3,4.5-2.5,10.5,2,14l62.5,45.5a.49.49,0,0,1,.5.5c.5,0,.5.5,1,.5s.5.5,1,.5.5,0,1,.5h6c.5,0,.5,0,1-.5.5,0,.5-.5,1-.5s.5-.5,1-.5.5-.5,1-.5a.49.49,0,0,0,.5-.5l.5-.5,80-97C182.18,53.9,181.68,47.4,177.68,43.9Z"/></svg>